<svg width="69" height="49" viewBox="0 0 69 49" fill="none" xmlns="http://www.w3.org/2000/svg">
<path d="M67.2397 7.7898C66.4597 4.8598 64.7497 2.3798 61.8197 1.5998C56.5097 0.179805 34.7197 0.0498047 34.7197 0.0498047C34.7197 0.0498047 12.9297 0.179805 7.61973 1.5998C4.68973 2.3798 2.98973 4.8598 2.19973 7.7898C0.779727 13.0998 0.719727 24.0498 0.719727 24.0498C0.719727 24.0498 0.779727 34.9998 2.19973 40.3098C2.97973 43.2398 4.68973 45.7198 7.61973 46.4998C12.9297 47.9198 34.7197 48.0498 34.7197 48.0498C34.7197 48.0498 56.5097 47.9198 61.8197 46.4998C64.7497 45.7198 66.4597 43.2398 67.2397 40.3098C68.6597 34.9998 68.7197 24.0498 68.7197 24.0498C68.7197 24.0498 68.6597 13.0998 67.2397 7.7898Z" fill="#FF0000"/>
<path d="M45.7197 24.0498L27.7197 14.0498V34.0498" fill="white"/>
</svg>
