<svg width="15" height="22" viewBox="0 0 15 22" fill="none" xmlns="http://www.w3.org/2000/svg">
<path d="M7.89014 5.30566C7.12451 5.30566 6.38167 5.4515 5.66162 5.74316C4.94157 6.03483 4.30811 6.4541 3.76123 7.00098C3.21436 7.54785 2.79508 8.18132 2.50342 8.90137C2.21175 9.62142 2.06592 10.3643 2.06592 11.1299C2.06592 11.8955 2.21175 12.6383 2.50342 13.3584C2.79508 14.0785 3.21436 14.7119 3.76123 15.2588C4.30811 15.8057 4.94157 16.2249 5.66162 16.5166C6.38167 16.8083 7.12451 16.9541 7.89014 16.9541C8.65576 16.9541 9.3986 16.8083 10.1187 16.5166C10.8387 16.2249 11.4722 15.8057 12.019 15.2588C12.5659 14.7119 12.9852 14.0785 13.2769 13.3584C13.5685 12.6383 13.7144 11.8955 13.7144 11.1299C13.7144 10.3643 13.5685 9.62142 13.2769 8.90137C12.9852 8.18132 12.5659 7.54785 12.019 7.00098C11.4722 6.4541 10.8387 6.03483 10.1187 5.74316C9.3986 5.4515 8.65576 5.30566 7.89014 5.30566Z" fill="#E67E22"/>
</svg>
