<svg width="61" height="91" viewBox="0 0 61 91" fill="none" xmlns="http://www.w3.org/2000/svg">
<path d="M36.0088 20.7593C32.3369 20.7593 28.9775 21.6577 25.9307 23.4546C22.8838 25.2515 20.4619 27.6733 18.665 30.7202C16.8682 33.7671 15.9697 37.1069 15.9697 40.7397C15.9697 44.3726 16.8682 47.7124 18.665 50.7593C20.4619 53.8062 22.8838 56.228 25.9307 58.0249C28.9775 59.8218 32.3174 60.7202 35.9502 60.7202C39.583 60.7202 42.9229 59.8218 45.9697 58.0249C49.0166 56.228 51.4385 53.8062 53.2354 50.7593C55.0322 47.7124 55.9307 44.353 55.9307 40.6812H51.0088C51.0088 43.4155 50.3252 45.9351 48.958 48.2397C47.5908 50.5444 45.7744 52.3608 43.5088 53.689C41.2432 55.0171 38.7432 55.6812 36.0088 55.6812C33.2744 55.6812 30.7549 55.0171 28.4502 53.689C26.1455 52.3608 24.3291 50.5444 23.001 48.2397C21.6729 45.9351 21.0088 43.4351 21.0088 40.7397C21.0088 38.0444 21.6729 35.5444 23.001 33.2397C24.3291 30.9351 26.1455 29.0991 28.4502 27.7319C30.7549 26.3647 33.2744 25.6812 36.0088 25.6812C37.0244 25.6812 38.0791 25.7983 39.1729 26.0327L43.1572 22.0483C40.8916 21.189 38.5088 20.7593 36.0088 20.7593ZM52.415 24.6265L36.0088 41.1499L30.0322 35.1733L26.5166 38.689L36.0088 48.1812L55.9307 28.2593L52.415 24.6265ZM13.2744 30.2515C11.0088 32.1265 9.23145 34.4312 7.94238 37.1655C6.65332 39.8999 6.00879 42.7515 6.00879 45.7202C6.00879 49.314 6.90723 52.6538 8.7041 55.7397C10.501 58.8257 12.9229 61.2671 15.9697 63.064C19.0166 64.8608 22.3369 65.7593 25.9307 65.7593C27.4932 65.7593 29.0557 65.564 30.6182 65.1733C26.2432 64.1577 22.3369 62.0874 18.8994 58.9624C16.4775 57.6343 14.5439 55.7788 13.0986 53.396C11.6533 51.0132 10.9307 48.4546 10.9307 45.7202C10.9307 45.0952 11.0088 44.353 11.165 43.4937C11.0088 42.3999 10.9307 41.4624 10.9307 40.6812C10.9307 37.0874 11.7119 33.6108 13.2744 30.2515Z" fill="#E67E22"/>
</svg>
