<svg width="61" height="91" viewBox="0 0 61 91" fill="none" xmlns="http://www.w3.org/2000/svg">
<path d="M35.4292 20.7593C31.7573 20.7593 28.3979 21.6577 25.3511 23.4546C22.3042 25.2515 19.8823 27.6733 18.0854 30.7202C16.2886 33.7671 15.3901 37.1069 15.3901 40.7397C15.3901 44.3726 16.2886 47.7124 18.0854 50.7593C19.8823 53.8062 22.3042 56.228 25.3511 58.0249C28.3979 59.8218 31.7378 60.7202 35.3706 60.7202C39.0034 60.7202 42.3433 59.8218 45.3901 58.0249C48.437 56.228 50.8589 53.8062 52.6558 50.7593C54.4526 47.7124 55.3511 44.353 55.3511 40.6812H50.4292C50.4292 43.4155 49.7456 45.9351 48.3784 48.2397C47.0112 50.5444 45.1948 52.3608 42.9292 53.689C40.6636 55.0171 38.1636 55.6812 35.4292 55.6812C32.6948 55.6812 30.1753 55.0171 27.8706 53.689C25.5659 52.3608 23.7495 50.5444 22.4214 48.2397C21.0933 45.9351 20.4292 43.4351 20.4292 40.7397C20.4292 38.0444 21.0933 35.5444 22.4214 33.2397C23.7495 30.9351 25.5659 29.0991 27.8706 27.7319C30.1753 26.3647 32.6948 25.6812 35.4292 25.6812C36.4448 25.6812 37.4995 25.7983 38.5933 26.0327L42.5776 22.0483C40.312 21.189 37.9292 20.7593 35.4292 20.7593ZM51.8354 24.6265L35.4292 41.1499L29.4526 35.1733L25.937 38.689L35.4292 48.1812L55.3511 28.2593L51.8354 24.6265ZM12.6948 30.2515C10.4292 32.1265 8.65186 34.4312 7.36279 37.1655C6.07373 39.8999 5.4292 42.7515 5.4292 45.7202C5.4292 49.314 6.32764 52.6538 8.12451 55.7397C9.92139 58.8257 12.3433 61.2671 15.3901 63.064C18.437 64.8608 21.7573 65.7593 25.3511 65.7593C26.9136 65.7593 28.4761 65.564 30.0386 65.1733C25.6636 64.1577 21.7573 62.0874 18.3198 58.9624C15.8979 57.6343 13.9644 55.7788 12.519 53.396C11.0737 51.0132 10.3511 48.4546 10.3511 45.7202C10.3511 45.0952 10.4292 44.353 10.5854 43.4937C10.4292 42.3999 10.3511 41.4624 10.3511 40.6812C10.3511 37.0874 11.1323 33.6108 12.6948 30.2515Z" fill="#E67E22"/>
</svg>
