<svg width="15" height="22" viewBox="0 0 15 22" fill="none" xmlns="http://www.w3.org/2000/svg">
<path d="M7.46973 5.396C6.7041 5.396 5.96126 5.54183 5.24121 5.8335C4.52116 6.12516 3.8877 6.54443 3.34082 7.09131C2.79395 7.63818 2.37467 8.27165 2.08301 8.9917C1.79134 9.71175 1.64551 10.4546 1.64551 11.2202C1.64551 11.9858 1.79134 12.7287 2.08301 13.4487C2.37467 14.1688 2.79395 14.8022 3.34082 15.3491C3.8877 15.896 4.52116 16.3153 5.24121 16.6069C5.96126 16.8986 6.7041 17.0444 7.46973 17.0444C8.23535 17.0444 8.97819 16.8986 9.69824 16.6069C10.4183 16.3153 11.0518 15.896 11.5986 15.3491C12.1455 14.8022 12.5648 14.1688 12.8564 13.4487C13.1481 12.7287 13.2939 11.9858 13.2939 11.2202C13.2939 10.4546 13.1481 9.71175 12.8564 8.9917C12.5648 8.27165 12.1455 7.63818 11.5986 7.09131C11.0518 6.54443 10.4183 6.12516 9.69824 5.8335C8.97819 5.54183 8.23535 5.396 7.46973 5.396Z" fill="#E67E22"/>
</svg>
