<svg width="15" height="22" viewBox="0 0 15 22" fill="none" xmlns="http://www.w3.org/2000/svg">
<path d="M7.35986 5.55566C6.59424 5.55566 5.8514 5.7015 5.13135 5.99316C4.4113 6.28483 3.77783 6.7041 3.23096 7.25098C2.68408 7.79785 2.26481 8.43132 1.97314 9.15137C1.68148 9.87142 1.53564 10.6143 1.53564 11.3799C1.53564 12.1455 1.68148 12.8883 1.97314 13.6084C2.26481 14.3285 2.68408 14.9619 3.23096 15.5088C3.77783 16.0557 4.4113 16.4749 5.13135 16.7666C5.8514 17.0583 6.59424 17.2041 7.35986 17.2041C8.12549 17.2041 8.86833 17.0583 9.58838 16.7666C10.3084 16.4749 10.9419 16.0557 11.4888 15.5088C12.0356 14.9619 12.4549 14.3285 12.7466 13.6084C13.0382 12.8883 13.1841 12.1455 13.1841 11.3799C13.1841 10.6143 13.0382 9.87142 12.7466 9.15137C12.4549 8.43132 12.0356 7.79785 11.4888 7.25098C10.9419 6.7041 10.3084 6.28483 9.58838 5.99316C8.86833 5.7015 8.12549 5.55566 7.35986 5.55566Z" fill="#E67E22"/>
</svg>
