<svg width="15" height="22" viewBox="0 0 15 22" fill="none" xmlns="http://www.w3.org/2000/svg">
<path d="M7.89014 5.396C7.12451 5.396 6.38167 5.54183 5.66162 5.8335C4.94157 6.12516 4.30811 6.54443 3.76123 7.09131C3.21436 7.63818 2.79508 8.27165 2.50342 8.9917C2.21175 9.71175 2.06592 10.4546 2.06592 11.2202C2.06592 11.9858 2.21175 12.7287 2.50342 13.4487C2.79508 14.1688 3.21436 14.8022 3.76123 15.3491C4.30811 15.896 4.94157 16.3153 5.66162 16.6069C6.38167 16.8986 7.12451 17.0444 7.89014 17.0444C8.65576 17.0444 9.3986 16.8986 10.1187 16.6069C10.8387 16.3153 11.4722 15.896 12.019 15.3491C12.5659 14.8022 12.9852 14.1688 13.2769 13.4487C13.5685 12.7287 13.7144 11.9858 13.7144 11.2202C13.7144 10.4546 13.5685 9.71175 13.2769 8.9917C12.9852 8.27165 12.5659 7.63818 12.019 7.09131C11.4722 6.54443 10.8387 6.12516 10.1187 5.8335C9.3986 5.54183 8.65576 5.396 7.89014 5.396Z" fill="#E67E22"/>
</svg>
