<svg width="61" height="91" viewBox="0 0 61 91" fill="none" xmlns="http://www.w3.org/2000/svg">
<path d="M35.9292 20.6689C32.2573 20.6689 28.8979 21.5674 25.8511 23.3643C22.8042 25.1611 20.3823 27.583 18.5854 30.6299C16.7886 33.6768 15.8901 37.0166 15.8901 40.6494C15.8901 44.2822 16.7886 47.6221 18.5854 50.6689C20.3823 53.7158 22.8042 56.1377 25.8511 57.9346C28.8979 59.7314 32.2378 60.6299 35.8706 60.6299C39.5034 60.6299 42.8433 59.7314 45.8901 57.9346C48.937 56.1377 51.3589 53.7158 53.1558 50.6689C54.9526 47.6221 55.8511 44.2627 55.8511 40.5908H50.9292C50.9292 43.3252 50.2456 45.8447 48.8784 48.1494C47.5112 50.4541 45.6948 52.2705 43.4292 53.5986C41.1636 54.9268 38.6636 55.5908 35.9292 55.5908C33.1948 55.5908 30.6753 54.9268 28.3706 53.5986C26.0659 52.2705 24.2495 50.4541 22.9214 48.1494C21.5933 45.8447 20.9292 43.3447 20.9292 40.6494C20.9292 37.9541 21.5933 35.4541 22.9214 33.1494C24.2495 30.8447 26.0659 29.0088 28.3706 27.6416C30.6753 26.2744 33.1948 25.5908 35.9292 25.5908C36.9448 25.5908 37.9995 25.708 39.0933 25.9424L43.0776 21.958C40.812 21.0986 38.4292 20.6689 35.9292 20.6689ZM52.3354 24.5361L35.9292 41.0596L29.9526 35.083L26.437 38.5986L35.9292 48.0908L55.8511 28.1689L52.3354 24.5361ZM13.1948 30.1611C10.9292 32.0361 9.15186 34.3408 7.86279 37.0752C6.57373 39.8096 5.9292 42.6611 5.9292 45.6299C5.9292 49.2236 6.82764 52.5635 8.62451 55.6494C10.4214 58.7354 12.8433 61.1768 15.8901 62.9736C18.937 64.7705 22.2573 65.6689 25.8511 65.6689C27.4136 65.6689 28.9761 65.4736 30.5386 65.083C26.1636 64.0674 22.2573 61.9971 18.8198 58.8721C16.3979 57.5439 14.4644 55.6885 13.019 53.3057C11.5737 50.9229 10.8511 48.3643 10.8511 45.6299C10.8511 45.0049 10.9292 44.2627 11.0854 43.4033C10.9292 42.3096 10.8511 41.3721 10.8511 40.5908C10.8511 36.9971 11.6323 33.5205 13.1948 30.1611Z" fill="#E67E22"/>
</svg>
