<svg width="61" height="91" viewBox="0 0 61 91" fill="none" xmlns="http://www.w3.org/2000/svg">
<path d="M35.5088 20.6689C31.8369 20.6689 28.4775 21.5674 25.4307 23.3643C22.3838 25.1611 19.9619 27.583 18.165 30.6299C16.3682 33.6768 15.4697 37.0166 15.4697 40.6494C15.4697 44.2822 16.3682 47.6221 18.165 50.6689C19.9619 53.7158 22.3838 56.1377 25.4307 57.9346C28.4775 59.7314 31.8174 60.6299 35.4502 60.6299C39.083 60.6299 42.4229 59.7314 45.4697 57.9346C48.5166 56.1377 50.9385 53.7158 52.7354 50.6689C54.5322 47.6221 55.4307 44.2627 55.4307 40.5908H50.5088C50.5088 43.3252 49.8252 45.8447 48.458 48.1494C47.0908 50.4541 45.2744 52.2705 43.0088 53.5986C40.7432 54.9268 38.2432 55.5908 35.5088 55.5908C32.7744 55.5908 30.2549 54.9268 27.9502 53.5986C25.6455 52.2705 23.8291 50.4541 22.501 48.1494C21.1729 45.8447 20.5088 43.3447 20.5088 40.6494C20.5088 37.9541 21.1729 35.4541 22.501 33.1494C23.8291 30.8447 25.6455 29.0088 27.9502 27.6416C30.2549 26.2744 32.7744 25.5908 35.5088 25.5908C36.5244 25.5908 37.5791 25.708 38.6729 25.9424L42.6572 21.958C40.3916 21.0986 38.0088 20.6689 35.5088 20.6689ZM51.915 24.5361L35.5088 41.0596L29.5322 35.083L26.0166 38.5986L35.5088 48.0908L55.4307 28.1689L51.915 24.5361ZM12.7744 30.1611C10.5088 32.0361 8.73145 34.3408 7.44238 37.0752C6.15332 39.8096 5.50879 42.6611 5.50879 45.6299C5.50879 49.2236 6.40723 52.5635 8.2041 55.6494C10.001 58.7354 12.4229 61.1768 15.4697 62.9736C18.5166 64.7705 21.8369 65.6689 25.4307 65.6689C26.9932 65.6689 28.5557 65.4736 30.1182 65.083C25.7432 64.0674 21.8369 61.9971 18.3994 58.8721C15.9775 57.5439 14.0439 55.6885 12.5986 53.3057C11.1533 50.9229 10.4307 48.3643 10.4307 45.6299C10.4307 45.0049 10.5088 44.2627 10.665 43.4033C10.5088 42.3096 10.4307 41.3721 10.4307 40.5908C10.4307 36.9971 11.2119 33.5205 12.7744 30.1611Z" fill="#E67E22"/>
</svg>
