<svg width="111" height="27" viewBox="0 0 111 27" fill="none" xmlns="http://www.w3.org/2000/svg">
<path d="M16.8996 1.0396C13.7696 1.0796 7.23956 1.2096 5.20956 1.7296C3.71956 2.1296 2.61956 3.3296 2.21956 4.7296C1.52956 7.4296 1.53956 13.0396 1.53956 13.0396C1.53956 13.0396 1.52956 18.6496 2.21956 21.3496C2.60956 22.8496 3.80956 23.9496 5.20956 24.3496C7.89956 25.0496 18.6096 25.0296 18.6096 25.0296C18.6096 25.0296 29.3096 25.0396 32.0096 24.3496C33.5096 23.9496 34.5996 22.7496 34.9996 21.3496C35.6896 18.6496 35.6796 13.0396 35.6796 13.0396C35.6796 13.0396 35.7896 7.4296 34.9996 4.7296C34.5996 3.2296 33.4096 2.1296 32.0096 1.7296C29.3296 1.0296 18.6196 1.0396 18.6196 1.0396C18.6196 1.0396 17.9496 1.0296 16.9096 1.0396H16.8996ZM89.1096 1.9396V23.2196H91.8896L92.1996 21.8496H92.2896C92.5896 22.3496 92.9996 22.7296 93.4996 23.0296C93.9996 23.3296 94.5796 23.4296 95.1796 23.4296C96.2796 23.4296 97.1696 22.9396 97.6696 21.8396C98.1696 20.7396 98.4796 19.1396 98.4796 16.9396V14.5396C98.4796 12.9396 98.3696 11.6396 98.1696 10.6396C97.9696 9.7496 97.6696 9.0496 97.1696 8.5496C96.6696 8.1496 96.0696 7.9596 95.2696 7.9596C94.6796 7.9596 94.0896 8.1496 93.5896 8.4496C93.0996 8.7496 92.5796 9.2496 92.3796 9.8496V1.9496H89.0996L89.1096 1.9396ZM39.1196 2.7196L43.0196 16.6196L43.1996 23.3296H46.5096V16.6196L50.3796 2.7196H47.0096L45.6096 9.0296C45.2096 10.9196 44.8996 12.2196 44.7996 13.0196H44.7096C44.5096 11.9196 44.1996 10.6196 43.8996 9.0296L42.5296 2.7196H39.1296H39.1196ZM68.7096 2.7196V5.4296H72.1096V23.3296H75.3896V5.4296H78.7896C78.7896 5.4296 78.7896 2.7196 78.6996 2.7196H68.7096ZM15.2196 7.8396L24.1196 13.0196L15.2196 18.1096V7.8296V7.8396ZM104.62 7.9296C102.92 7.9296 101.73 8.5196 101.03 9.5196C100.34 10.5096 100.04 12.1196 100.04 14.4196V17.0096C100.04 19.2096 100.34 20.9096 101.03 21.9096C101.73 23.0096 102.83 23.4996 104.53 23.4996C105.93 23.4996 106.91 23.1996 107.71 22.4996C108.41 21.7996 108.8 20.8096 108.8 19.4096V18.9096L105.9 18.6996C105.9 19.6996 105.82 20.2996 105.62 20.6996C105.52 21.0996 105.12 21.3196 104.62 21.3196C104.32 21.3196 104.01 21.2096 103.81 21.0096C103.61 20.7096 103.51 20.4196 103.41 19.9196C103.31 19.4196 103.32 18.7096 103.32 17.7096V16.9296L109.03 16.8396V14.2196C109.03 12.6196 108.93 11.4396 108.63 10.5396C108.43 9.6496 107.92 8.9496 107.32 8.5496C106.62 8.1496 105.84 7.9596 104.64 7.9596L104.62 7.9296ZM54.1296 8.0196C53.0396 8.0196 52.1196 8.1996 51.4196 8.6996C50.7196 9.0996 50.2196 9.8196 49.9296 10.8196C49.6296 11.8196 49.4296 13.0896 49.4296 14.6896V16.8996C49.4296 18.3996 49.5296 19.6796 49.8296 20.6796C50.0296 21.5796 50.5296 22.2996 51.2296 22.7996C51.9196 23.2996 52.9396 23.4796 54.0396 23.5796C55.2296 23.5796 56.1196 23.2996 56.8196 22.8996C57.5096 22.4996 57.9096 21.8096 58.3096 20.8096C58.6996 19.8096 58.7996 18.5096 58.7996 16.9096V14.6996C58.7996 13.0996 58.5996 11.8296 58.3096 10.8296C58.0096 9.9396 57.5096 9.2096 56.8196 8.7096C56.1196 8.2096 55.2396 8.0296 54.1396 8.0296L54.1296 8.0196ZM66.3096 8.1096V20.0096C66.2096 20.3096 66.0196 20.4896 65.7196 20.6896C65.5196 20.8896 65.2096 20.9996 64.9096 20.9996C64.6096 20.9996 64.3296 20.8996 64.2296 20.5996C64.1296 20.2996 64.0496 19.8996 64.0496 19.1996V8.2096H60.6496V19.4196C60.6496 20.8196 60.8296 21.8096 61.3296 22.5096C61.8196 23.2096 62.5396 23.5096 63.5396 23.5096C64.9396 23.5096 66.0196 22.8196 66.7196 21.4196H66.8096L67.1196 23.1996H69.7096V8.2096C69.7096 8.2096 66.3096 8.2096 66.3096 8.1196V8.1096ZM83.6196 8.1096V20.0096C83.5196 20.3096 83.3296 20.4896 83.0296 20.6896C82.8296 20.8896 82.5196 20.9996 82.2196 20.9996C81.9196 20.9996 81.6396 20.8996 81.5396 20.5996C81.4396 20.2996 81.3296 19.8996 81.3296 19.1996V8.2096H77.9296V19.4196C77.9296 20.8196 78.1396 21.8096 78.6396 22.5096C79.1396 23.2096 79.8196 23.5096 80.8196 23.5096C82.2096 23.5096 83.3296 22.8196 84.0296 21.4196H84.1196L84.3996 23.1996H87.0196V8.2096C87.0196 8.2096 83.6196 8.2096 83.6196 8.1196V8.1096ZM104.52 10.1996C104.92 10.1996 105.1 10.3096 105.3 10.5096C105.5 10.8096 105.6 11.0996 105.7 11.5996C105.8 12.0996 105.79 12.8096 105.79 13.8096V14.8996H103.29V13.8096C103.29 12.8096 103.29 12.0996 103.38 11.5996C103.38 11.1996 103.49 10.7996 103.69 10.5996C103.89 10.2996 104.2 10.1996 104.5 10.1996H104.52ZM54.0296 10.3196C54.5296 10.3196 54.8296 10.4996 55.0296 10.9996C55.2196 11.4996 55.3096 12.2996 55.3096 13.3996V18.0796C55.3096 19.1796 55.2296 19.9796 55.0296 20.4796C54.8296 20.9796 54.5296 21.1596 54.0296 21.1596C53.5296 21.1596 53.2396 20.9796 53.0396 20.4796C52.8396 19.9796 52.7296 19.1796 52.7296 18.0796V13.3996C52.7296 12.2996 52.8396 11.4996 53.0396 10.9996C53.2396 10.4996 53.5296 10.3196 54.0296 10.3196ZM93.7096 10.4096C94.0096 10.4096 94.3196 10.5096 94.5196 10.8096C94.7196 11.1096 94.7896 11.4796 94.8896 12.1796C94.9896 12.7796 95.0096 13.6896 95.0096 14.8896L95.0996 16.7896C95.0996 17.8896 95.0996 18.7796 95.0096 19.3796C94.9096 19.9796 94.8196 20.4596 94.5196 20.6596C94.3196 20.9596 94.0196 21.0596 93.6196 21.0596C93.3196 21.0596 93.1096 20.9796 92.8096 20.8796C92.6096 20.7796 92.4196 20.5896 92.2196 20.2896V11.7896C92.3196 11.3896 92.5096 11.0896 92.8096 10.7896C93.1096 10.4896 93.4096 10.3896 93.7096 10.3896V10.4096Z" fill="white" stroke="black" stroke-opacity="0.15" stroke-width="2"/>
<path d="M16.8996 1.0396C13.7696 1.0796 7.23956 1.2096 5.20956 1.7296C3.71956 2.1296 2.61956 3.3296 2.21956 4.7296C1.52956 7.4296 1.53956 13.0396 1.53956 13.0396C1.53956 13.0396 1.52956 18.6496 2.21956 21.3496C2.60956 22.8496 3.80956 23.9496 5.20956 24.3496C7.89956 25.0496 18.6096 25.0296 18.6096 25.0296C18.6096 25.0296 29.3096 25.0396 32.0096 24.3496C33.5096 23.9496 34.5996 22.7496 34.9996 21.3496C35.6896 18.6496 35.6796 13.0396 35.6796 13.0396C35.6796 13.0396 35.7896 7.4296 34.9996 4.7296C34.5996 3.2296 33.4096 2.1296 32.0096 1.7296C29.3296 1.0296 18.6196 1.0396 18.6196 1.0396C18.6196 1.0396 17.9496 1.0296 16.9096 1.0396H16.8996ZM89.1096 1.9396V23.2196H91.8896L92.1996 21.8496H92.2896C92.5896 22.3496 92.9996 22.7296 93.4996 23.0296C93.9996 23.3296 94.5796 23.4296 95.1796 23.4296C96.2796 23.4296 97.1696 22.9396 97.6696 21.8396C98.1696 20.7396 98.4796 19.1396 98.4796 16.9396V14.5396C98.4796 12.9396 98.3696 11.6396 98.1696 10.6396C97.9696 9.7496 97.6696 9.0496 97.1696 8.5496C96.6696 8.1496 96.0696 7.9596 95.2696 7.9596C94.6796 7.9596 94.0896 8.1496 93.5896 8.4496C93.0996 8.7496 92.5796 9.2496 92.3796 9.8496V1.9496H89.0996L89.1096 1.9396ZM39.1196 2.7196L43.0196 16.6196L43.1996 23.3296H46.5096V16.6196L50.3796 2.7196H47.0096L45.6096 9.0296C45.2096 10.9196 44.8996 12.2196 44.7996 13.0196H44.7096C44.5096 11.9196 44.1996 10.6196 43.8996 9.0296L42.5296 2.7196H39.1296H39.1196ZM68.7096 2.7196V5.4296H72.1096V23.3296H75.3896V5.4296H78.7896C78.7896 5.4296 78.7896 2.7196 78.6996 2.7196H68.7096ZM15.2196 7.8396L24.1196 13.0196L15.2196 18.1096V7.8296V7.8396ZM104.62 7.9296C102.92 7.9296 101.73 8.5196 101.03 9.5196C100.34 10.5096 100.04 12.1196 100.04 14.4196V17.0096C100.04 19.2096 100.34 20.9096 101.03 21.9096C101.73 23.0096 102.83 23.4996 104.53 23.4996C105.93 23.4996 106.91 23.1996 107.71 22.4996C108.41 21.7996 108.8 20.8096 108.8 19.4096V18.9096L105.9 18.6996C105.9 19.6996 105.82 20.2996 105.62 20.6996C105.52 21.0996 105.12 21.3196 104.62 21.3196C104.32 21.3196 104.01 21.2096 103.81 21.0096C103.61 20.7096 103.51 20.4196 103.41 19.9196C103.31 19.4196 103.32 18.7096 103.32 17.7096V16.9296L109.03 16.8396V14.2196C109.03 12.6196 108.93 11.4396 108.63 10.5396C108.43 9.6496 107.92 8.9496 107.32 8.5496C106.62 8.1496 105.84 7.9596 104.64 7.9596L104.62 7.9296ZM54.1296 8.0196C53.0396 8.0196 52.1196 8.1996 51.4196 8.6996C50.7196 9.0996 50.2196 9.8196 49.9296 10.8196C49.6296 11.8196 49.4296 13.0896 49.4296 14.6896V16.8996C49.4296 18.3996 49.5296 19.6796 49.8296 20.6796C50.0296 21.5796 50.5296 22.2996 51.2296 22.7996C51.9196 23.2996 52.9396 23.4796 54.0396 23.5796C55.2296 23.5796 56.1196 23.2996 56.8196 22.8996C57.5096 22.4996 57.9096 21.8096 58.3096 20.8096C58.6996 19.8096 58.7996 18.5096 58.7996 16.9096V14.6996C58.7996 13.0996 58.5996 11.8296 58.3096 10.8296C58.0096 9.9396 57.5096 9.2096 56.8196 8.7096C56.1196 8.2096 55.2396 8.0296 54.1396 8.0296L54.1296 8.0196ZM66.3096 8.1096V20.0096C66.2096 20.3096 66.0196 20.4896 65.7196 20.6896C65.5196 20.8896 65.2096 20.9996 64.9096 20.9996C64.6096 20.9996 64.3296 20.8996 64.2296 20.5996C64.1296 20.2996 64.0496 19.8996 64.0496 19.1996V8.2096H60.6496V19.4196C60.6496 20.8196 60.8296 21.8096 61.3296 22.5096C61.8196 23.2096 62.5396 23.5096 63.5396 23.5096C64.9396 23.5096 66.0196 22.8196 66.7196 21.4196H66.8096L67.1196 23.1996H69.7096V8.2096C69.7096 8.2096 66.3096 8.2096 66.3096 8.1196V8.1096ZM83.6196 8.1096V20.0096C83.5196 20.3096 83.3296 20.4896 83.0296 20.6896C82.8296 20.8896 82.5196 20.9996 82.2196 20.9996C81.9196 20.9996 81.6396 20.8996 81.5396 20.5996C81.4396 20.2996 81.3296 19.8996 81.3296 19.1996V8.2096H77.9296V19.4196C77.9296 20.8196 78.1396 21.8096 78.6396 22.5096C79.1396 23.2096 79.8196 23.5096 80.8196 23.5096C82.2096 23.5096 83.3296 22.8196 84.0296 21.4196H84.1196L84.3996 23.1996H87.0196V8.2096C87.0196 8.2096 83.6196 8.2096 83.6196 8.1196V8.1096ZM104.52 10.1996C104.92 10.1996 105.1 10.3096 105.3 10.5096C105.5 10.8096 105.6 11.0996 105.7 11.5996C105.8 12.0996 105.79 12.8096 105.79 13.8096V14.8996H103.29V13.8096C103.29 12.8096 103.29 12.0996 103.38 11.5996C103.38 11.1996 103.49 10.7996 103.69 10.5996C103.89 10.2996 104.2 10.1996 104.5 10.1996H104.52ZM54.0296 10.3196C54.5296 10.3196 54.8296 10.4996 55.0296 10.9996C55.2196 11.4996 55.3096 12.2996 55.3096 13.3996V18.0796C55.3096 19.1796 55.2296 19.9796 55.0296 20.4796C54.8296 20.9796 54.5296 21.1596 54.0296 21.1596C53.5296 21.1596 53.2396 20.9796 53.0396 20.4796C52.8396 19.9796 52.7296 19.1796 52.7296 18.0796V13.3996C52.7296 12.2996 52.8396 11.4996 53.0396 10.9996C53.2396 10.4996 53.5296 10.3196 54.0296 10.3196ZM93.7096 10.4096C94.0096 10.4096 94.3196 10.5096 94.5196 10.8096C94.7196 11.1096 94.7896 11.4796 94.8896 12.1796C94.9896 12.7796 95.0096 13.6896 95.0096 14.8896L95.0996 16.7896C95.0996 17.8896 95.0996 18.7796 95.0096 19.3796C94.9096 19.9796 94.8196 20.4596 94.5196 20.6596C94.3196 20.9596 94.0196 21.0596 93.6196 21.0596C93.3196 21.0596 93.1096 20.9796 92.8096 20.8796C92.6096 20.7796 92.4196 20.5896 92.2196 20.2896V11.7896C92.3196 11.3896 92.5096 11.0896 92.8096 10.7896C93.1096 10.4896 93.4096 10.3896 93.7096 10.3896V10.4096Z" fill="white"/>
</svg>
