<svg width="37" height="37" viewBox="0 0 37 37" fill="none" xmlns="http://www.w3.org/2000/svg">
<path d="M20.4197 14.24V9.79004L28.2097 17.58L20.4197 25.37V20.81C16.4897 20.74 12.3197 21.86 9.55969 24.81C9.01969 25.18 7.81969 27.34 8.33969 25.7C9.29969 21.37 12.0197 17.23 16.1997 15.43C17.5297 14.83 18.9597 14.45 20.4097 14.24H20.4197Z" fill="white" stroke="black" stroke-opacity="0.15" stroke-width="2"/>
<path d="M20.4197 14.24V9.79004L28.2097 17.58L20.4197 25.37V20.81C16.4897 20.74 12.3197 21.86 9.55969 24.81C9.01969 25.18 7.81969 27.34 8.33969 25.7C9.29969 21.37 12.0197 17.23 16.1997 15.43C17.5297 14.83 18.9597 14.45 20.4097 14.24H20.4197Z" fill="white"/>
</svg>
